<?xml version="1.0" standalone="no"?><!DOCTYPE svg PUBLIC "-//W3C//DTD SVG 1.1//EN" "http://www.w3.org/Graphics/SVG/1.1/DTD/svg11.dtd"><svg t="1652502072232" class="icon" viewBox="0 0 1024 1024" version="1.1" xmlns="http://www.w3.org/2000/svg" p-id="6190" id="mx_n_1652502072235" width="512" height="512" xmlns:xlink="http://www.w3.org/1999/xlink"><defs><style type="text/css"></style></defs><path d="M717.226667 666.88a35.84 35.84 0 1 1-51.2 50.773333L512 563.2l-154.453333 154.453333a35.84 35.84 0 0 1-51.2-50.773333L461.226667 512 306.773333 357.12a35.84 35.84 0 0 1 51.2-50.773333L512 460.8l154.453333-154.88a35.84 35.84 0 1 1 51.2 50.773333L562.773333 512zM512 0a512 512 0 1 0 512 512A512 512 0 0 0 512 0z" fill="#ff0000" p-id="6191" data-spm-anchor-id="a313x.7781069.0.i10" class=""></path></svg>